<svg width="422" height="319" viewBox="0 0 422 319" fill="none" xmlns="http://www.w3.org/2000/svg">
<path d="M421.205 192.114C399.954 155.324 369.299 124.818 332.37 103.709C295.441 82.6004 253.559 71.6446 211 71.9601C168.441 71.6446 126.559 82.6004 89.6301 103.709C52.701 124.818 22.0464 155.324 0.794811 192.114C0.272107 193.158 0 194.31 0 195.477C0 196.644 0.272107 197.795 0.794811 198.839C22.0464 235.629 52.701 266.136 89.6301 287.244C126.559 308.353 168.441 319.309 211 318.993C253.559 319.309 295.441 308.353 332.37 287.244C369.299 266.136 399.954 235.629 421.205 198.839C421.728 197.795 422 196.644 422 195.477C422 194.31 421.728 193.158 421.205 192.114ZM211 303.957C171.881 304.29 133.348 294.464 99.1863 275.445C65.0248 256.426 36.41 228.867 16.1532 195.477C36.41 162.086 65.0248 134.528 99.1863 115.509C133.348 96.4894 171.881 86.6637 211 86.9968C250.119 86.6637 288.652 96.4894 322.814 115.509C356.975 134.528 385.59 162.086 405.847 195.477C385.59 228.867 356.975 256.426 322.814 275.445C288.652 294.464 250.119 304.29 211 303.957Z" fill="#E65F25"/>
<path d="M211 150.367C202.057 150.367 193.316 153.012 185.88 157.969C178.445 162.926 172.65 169.971 169.227 178.214C165.805 186.457 164.91 195.527 166.654 204.277C168.399 213.028 172.705 221.066 179.029 227.374C185.352 233.683 193.408 237.979 202.179 239.72C210.95 241.461 220.041 240.567 228.303 237.153C236.565 233.739 243.626 227.957 248.594 220.539C253.563 213.12 256.214 204.399 256.214 195.477C256.201 183.517 251.433 172.051 242.957 163.594C234.48 155.137 222.988 150.38 211 150.367ZM211 225.55C205.038 225.55 199.211 223.786 194.254 220.482C189.297 217.177 185.433 212.481 183.152 206.985C180.87 201.49 180.273 195.443 181.436 189.61C182.599 183.776 185.47 178.418 189.686 174.212C193.901 170.006 199.272 167.142 205.119 165.981C210.967 164.821 217.027 165.416 222.535 167.693C228.043 169.969 232.751 173.823 236.063 178.769C239.375 183.714 241.143 189.529 241.143 195.477C241.134 203.45 237.956 211.094 232.305 216.732C226.654 222.37 218.992 225.542 211 225.55Z" fill="#E65F25"/>
<path d="M211 105.257C193.115 105.257 175.632 110.548 160.761 120.462C145.89 130.375 134.299 144.466 127.455 160.951C120.611 177.437 118.82 195.577 122.309 213.078C125.798 230.579 134.411 246.654 147.057 259.272C159.704 271.889 175.817 280.482 193.358 283.963C210.9 287.444 229.082 285.658 245.606 278.829C262.129 272.001 276.252 260.437 286.189 245.6C296.125 230.764 301.429 213.321 301.429 195.477C301.402 171.557 291.866 148.625 274.913 131.711C257.96 114.797 234.975 105.283 211 105.257ZM211 270.66C196.096 270.66 181.526 266.251 169.134 257.99C156.741 249.728 147.083 237.986 141.379 224.248C135.675 210.51 134.183 195.393 137.091 180.809C139.999 166.225 147.176 152.829 157.714 142.314C168.253 131.8 181.681 124.639 196.299 121.738C210.916 118.837 226.068 120.326 239.838 126.016C253.608 131.707 265.377 141.343 273.657 153.707C281.938 166.071 286.357 180.607 286.357 195.477C286.334 215.41 278.388 234.52 264.26 248.614C250.133 262.709 230.979 270.637 211 270.66Z" fill="#E65F25"/>
<path d="M211 52.6284C211.99 52.6286 212.97 52.4343 213.884 52.0566C214.798 51.6789 215.629 51.1251 216.329 50.4269C217.029 49.7287 217.584 48.8998 217.963 47.9875C218.341 47.0752 218.536 46.0974 218.536 45.11V7.51834C218.536 5.52435 217.742 3.61203 216.329 2.20207C214.915 0.79211 212.999 0 211 0C209.001 0 207.085 0.79211 205.671 2.20207C204.258 3.61203 203.464 5.52435 203.464 7.51834V45.11C203.464 46.0974 203.659 47.0752 204.037 47.9875C204.416 48.8998 204.971 49.7287 205.671 50.4269C206.371 51.1251 207.201 51.6789 208.116 52.0566C209.03 52.4343 210.01 52.6286 211 52.6284Z" fill="#E65F25"/>
<path d="M76.8658 72.1769C77.4586 72.9692 78.2023 73.6371 79.0543 74.1423C79.9062 74.6474 80.8497 74.98 81.8306 75.1208C82.8116 75.2616 83.8107 75.208 84.7709 74.963C85.731 74.718 86.6333 74.2865 87.426 73.693C88.2188 73.0996 88.8864 72.356 89.3906 71.5048C89.8949 70.6536 90.2259 69.7115 90.3646 68.7325C90.5034 67.7534 90.4472 66.7567 90.1993 65.7994C89.9514 64.842 89.5166 63.9429 88.9199 63.1535L66.3133 33.0806C65.0988 31.5282 63.3223 30.5132 61.3657 30.2537C59.4092 29.9941 57.4286 30.5108 55.8497 31.6926C54.2709 32.8744 53.2197 34.627 52.9222 36.5737C52.6247 38.5205 53.1045 40.506 54.2586 42.1035L76.8658 72.1769Z" fill="#E65F25"/>
<path d="M339.1 75.1835C340.271 75.1858 341.426 74.9151 342.474 74.3931C343.521 73.8711 344.432 73.1122 345.134 72.1769L367.741 42.104C368.894 40.5065 369.374 38.5214 369.076 36.5751C368.778 34.6288 367.728 32.8765 366.149 31.6949C364.571 30.5132 362.591 29.9963 360.634 30.2554C358.678 30.5144 356.902 31.5286 355.687 33.0801L333.08 63.1534C332.259 64.2745 331.763 65.5992 331.647 66.9826C331.53 68.366 331.797 69.7548 332.419 70.997C333.04 72.2392 333.992 73.2868 335.17 74.0252C336.349 74.7636 337.708 75.1643 339.1 75.1835Z" fill="#E65F25"/>
</svg>
