<svg width="319" height="319" viewBox="0 0 319 319" fill="none" xmlns="http://www.w3.org/2000/svg">
<g clip-path="url(#clip0_1182_1813)">
<path d="M160.036 111.291C164.427 111.291 167.983 107.733 167.983 103.345C167.983 98.9566 164.427 95.3984 160.036 95.3984C124.929 95.3984 96.4688 123.859 96.4688 158.969C96.4688 194.076 124.929 222.536 160.036 222.536C195.146 222.536 223.607 194.076 223.607 158.969C223.607 154.578 220.048 151.022 215.66 151.022C211.272 151.022 207.714 154.578 207.714 158.969C207.714 185.3 186.37 206.646 160.036 206.646C133.705 206.646 112.359 185.3 112.359 158.969C112.359 132.635 133.705 111.291 160.036 111.291Z" fill="#E65F25"/>
<path d="M311.647 111.771C310.267 107.602 305.77 105.341 301.598 106.721C297.524 108.069 295.256 112.406 296.47 116.522C320.233 192.195 278.153 272.804 202.48 296.568C126.809 320.331 46.2002 278.251 22.4369 202.578C-1.32892 126.904 40.7535 46.2954 116.424 22.532C144.437 13.7363 174.47 13.7363 202.48 22.532C206.686 23.8 211.122 21.4198 212.39 17.2142C213.639 13.0719 211.349 8.69357 207.233 7.35499C123.207 -19.0076 33.7174 27.7378 7.35478 111.766C-19.0079 195.792 27.7401 285.282 111.766 311.645C195.795 338.007 285.282 291.262 311.645 207.234C321.394 176.159 321.394 142.846 311.647 111.771Z" fill="#E65F25"/>
<path d="M175.168 56.7714C175.209 52.247 171.734 48.465 167.221 48.1267C164.848 47.9247 162.473 47.7227 160.037 47.7227C98.5962 47.7227 48.7891 97.5298 48.7891 158.97C48.7891 220.409 98.5962 270.216 160.037 270.216C221.475 270.216 271.282 220.409 271.282 158.97C271.282 156.096 271.107 153.224 270.754 150.372C270.119 146.011 266.069 142.99 261.708 143.626C257.346 144.258 254.326 148.311 254.959 152.672C254.983 152.837 255.012 153 255.047 153.166C255.219 155.091 255.39 156.999 255.39 158.966C255.392 211.63 212.701 254.321 160.039 254.326C107.375 254.328 64.684 211.635 64.6816 158.973C64.6792 106.311 107.368 63.6176 160.032 63.6152H160.034C162.006 63.6152 163.916 63.7856 165.837 63.9559L167.326 64.08C171.478 64.2577 174.988 61.0354 175.163 56.8834C175.165 56.8444 175.165 56.8079 175.168 56.7714Z" fill="#E65F25"/>
<path d="M207.713 71.5609V100.056L154.418 153.35C151.261 156.4 151.174 161.43 154.223 164.587C157.273 167.744 162.303 167.831 165.46 164.782C165.526 164.718 165.591 164.653 165.655 164.587L218.95 111.292H247.444C249.552 111.292 251.572 110.455 253.064 108.963L300.739 61.2855C303.842 58.1825 303.842 53.1519 300.739 50.0488C299.249 48.5593 297.229 47.7221 295.122 47.7221H271.283V23.8833C271.283 19.4952 267.725 15.937 263.334 15.9395C261.229 15.9395 259.209 16.7767 257.72 18.2661L210.042 65.9438C208.55 67.4332 207.713 69.4533 207.713 71.5609ZM223.605 74.8514L255.39 43.0663V55.6684C255.39 60.0565 258.949 63.6146 263.337 63.6146H275.939L244.154 95.3997H223.605V74.8514Z" fill="#E65F25"/>
</g>
<defs>
<clipPath id="clip0_1182_1813">
<rect width="319" height="319" fill="white"/>
</clipPath>
</defs>
</svg>
